<?xml version="1.0" encoding="iso-8859-1"?>
<!-- Uploaded to: SVG Repo, www.svgrepo.com, Generator: SVG Repo Mixer Tools -->
<svg fill="#000000" height="800px" width="800px" version="1.1" id="Layer_1" xmlns="http://www.w3.org/2000/svg" xmlns:xlink="http://www.w3.org/1999/xlink" 
	 viewBox="0 0 512 512" xml:space="preserve">
<g>
	<g>
		<path d="M307.2,366.933c5.12,0,8.533-3.413,8.533-8.533v-25.6h8.533c5.12,0,8.533-3.413,8.533-8.533v-25.6h170.667
			c5.12,0,8.533-3.413,8.533-8.533v-256c0-5.12-3.413-8.533-8.533-8.533h-34.133V8.533c0-5.12-3.413-8.533-8.533-8.533h-68.267
			C387.413,0,384,3.413,384,8.533V25.6h-85.333V8.533c0-5.12-3.413-8.533-8.533-8.533h-68.267c-5.12,0-8.533,3.413-8.533,8.533V25.6
			H128V8.533C128,3.413,124.587,0,119.467,0H51.2c-5.12,0-8.533,3.413-8.533,8.533V25.6H8.533C3.413,25.6,0,29.013,0,34.133v256
			c0,5.12,3.413,8.533,8.533,8.533H179.2v25.6c0,5.12,3.413,8.533,8.533,8.533h8.533v25.6c0,5.12,3.413,8.533,8.533,8.533h25.6v128
			H8.533c-5.12,0-8.533,3.413-8.533,8.533S3.413,512,8.533,512h230.4h34.133h230.4c5.12,0,8.533-3.413,8.533-8.533
			s-3.413-8.533-8.533-8.533H281.6v-128H307.2z M401.067,34.133V17.067h51.2v17.067V51.2h-51.2V34.133z M110.933,34.133V51.2h-51.2
			V34.133V17.067h51.2V34.133z M230.4,34.133V17.067h51.2v17.067V51.2h-51.2V34.133z M196.267,315.733v-17.067h119.467v17.067H307.2
			H204.8H196.267z M264.533,494.933h-17.067v-128h17.067V494.933z M273.067,349.867h-34.133h-25.6V332.8h85.333v17.067H273.067z"/>
	</g>
</g>
</svg>