<svg xmlns="http://www.w3.org/2000/svg" enable-background="new 0 0 24 24" height="24px" viewBox="0 0 24 24" width="24px" fill="currentColor"><g><rect fill="none" height="24" width="24"/></g><g><g><path d="M14,2H8C6.9,2,6,2.9,6,4v16c0,1.1,0.9,2,2,2h8c1.1,0,2-0.9,2-2V4C16,2.9,15.1,2,14,2z M12,4c0.55,0,1,0.45,1,1s-0.45,1-1,1 s-1-0.45-1-1S11.45,4,12,4z M12,20c-0.55,0-1-0.45-1-1s0.45-1,1-1s1,0.45,1,1S12.55,20,12,20z M14,17H8v-2h6V17z M14,13H8V7h6V13z"/><polygon points="20,7 20,9 18,9 18,7 17,7 17,11 18,11 18,13 20,13 20,15 22,15 22,5"/><polygon points="4,5 2,5 2,15 4,15 4,13 6,13 6,11 7,11 7,7 6,7 6,9 4,9"/></g></g></svg>
