<?xml version='1.0' encoding='iso-8859-1'?>
<!DOCTYPE svg PUBLIC '-//W3C//DTD SVG 1.1//EN' 'http://www.w3.org/Graphics/SVG/1.1/DTD/svg11.dtd'>
<!-- Uploaded to: SVG Repo, www.svgrepo.com, Generator: SVG Repo Mixer Tools -->
<svg fill="#000000" height="800px" width="800px" version="1.1" xmlns="http://www.w3.org/2000/svg" viewBox="0 0 401 401" xmlns:xlink="http://www.w3.org/1999/xlink" enable-background="new 0 0 401 401">
  <path d="m391,159.3c5.523,0 10-4.477 10-10s-4.477-10-10-10h-9v-34.4h9c5.523,0 10-4.477 10-10s-4.477-10-10-10h-9v-44.4c0-5.523-4.477-10-10-10h-362c-5.523,0-10,4.477-10,10v320c0,5.523 4.477,10 10,10s10-4.477 10-10v-38h70v38c0,5.523 4.477,10 10,10s10-4.477 10-10v-310h67.826v85.186c-18.902,4.521-33,21.546-33,41.814 0,23.71 19.29,43 43,43s43-19.29 43-43c0-20.267-14.098-37.293-33-41.814v-85.186h76.348v85.186c-18.902,4.521-33,21.546-33,41.814 0,23.71 19.29,43 43,43s43-19.29 43-43c0-20.267-14.098-37.293-33-41.814v-85.186h67.826v34.4h-9c-5.523,0-10,4.477-10,10s4.477,10 10,10h9v34.4h-9c-5.523,0-10,4.477-10,10s4.477,10 10,10h9v34.4h-9c-5.523,0-10,4.477-10,10s4.477,10 10,10h9v34.4h-9c-5.523,0-10,4.477-10,10s4.477,10 10,10h9v34.4h-9c-5.523,0-10,4.477-10,10s4.477,10 10,10h9v38c0,5.523 4.477,10 10,10s10-4.477 10-10v-38h9c5.523,0 10-4.477 10-10s-4.477-10-10-10h-9v-34.4h9c5.523,0 10-4.477 10-10s-4.477-10-10-10h-9v-34.4h9c5.523,0 10-4.477 10-10s-4.477-10-10-10h-9v-34.4h9zm-180.174,18.2c0,12.682-10.318,23-23,23s-23-10.318-23-23 10.318-23 23-23 23,10.318 23,23zm96.348,0c0,12.682-10.318,23-23,23s-23-10.318-23-23 10.318-23 23-23 23,10.318 23,23zm-287.174,16.2v-34.4h70v34.4h-70zm70,20v34.4h-70v-34.4h70zm-70-74.4v-34.4h70v34.4h-70zm0,163.2v-34.4h70v34.4h-70zm70-217.6h-70v-34.4h70v34.4z"/>
</svg>